<?xml version="1.0" standalone="no"?>
<!DOCTYPE svg PUBLIC "-//W3C//DTD SVG 20010904//EN"
 "http://www.w3.org/TR/2001/REC-SVG-20010904/DTD/svg10.dtd">
<svg version="1.0" xmlns="http://www.w3.org/2000/svg"
 width="500.000000pt" height="500.000000pt" viewBox="0 0 500.000000 500.000000"
 preserveAspectRatio="xMidYMid meet">

<g transform="translate(0.000000,500.000000) scale(0.100000,-0.100000)"
fill="#000000" stroke="none">
<path d="M0 2500 l0 -2500 2500 0 2500 0 0 2500 0 2500 -2500 0 -2500 0 0
-2500z m3891 1670 l74 -69 -1535 -1 -1535 -1 -120 -205 c-66 -113 -121 -209
-123 -214 -2 -6 241 -10 652 -10 l656 0 0 -1346 c0 -740 -4 -1344 -8 -1342 -5
2 -38 35 -75 74 l-67 71 0 1202 0 1201 -710 2 -709 3 66 110 c36 61 73 124 83
140 9 17 74 126 144 243 l127 212 1503 0 1502 0 75 -70z m719 -331 c0 -6 -16
-38 -36 -72 -20 -34 -45 -75 -54 -92 -10 -16 -49 -84 -87 -150 -39 -66 -95
-163 -126 -215 l-55 -95 -886 -3 -886 -2 0 -1096 c0 -873 3 -1094 13 -1088 15
9 115 73 240 154 l97 63 0 873 0 874 75 0 75 0 0 -914 0 -913 -97 -63 c-152
-99 -512 -327 -540 -344 -10 -6 -13 257 -13 1298 l0 1306 918 0 917 0 54 93
c30 50 73 125 97 166 24 40 44 75 44 77 0 2 -441 4 -980 4 l-980 0 0 68 c0 38
3 72 7 75 12 12 2203 8 2203 -4z"/>
</g>
</svg>
